<svg width="706" height="74.401" viewBox="0 0 706 74.401" xmlns="http://www.w3.org/2000/svg"><g id="svgGroup" stroke-linecap="round" fill-rule="evenodd" font-size="9pt" stroke="#00000000" stroke-width="0.25mm" fill="#e6e6e6" style="stroke:#00000000;stroke-width:0.25mm;fill:#e6e6e6"><path d="M 108.3 46.3 L 154 46.3 A 29.027 29.027 0 0 0 152.949 40.022 A 23.299 23.299 0 0 0 150.8 34.9 Q 148 30 143.2 27.25 A 20.631 20.631 0 0 0 135.844 24.769 A 26.653 26.653 0 0 0 132 24.5 Q 125.4 24.5 120.2 27.55 Q 115 30.6 112.05 35.95 A 23.661 23.661 0 0 0 109.346 44.391 A 30.143 30.143 0 0 0 109.1 48.3 A 28.27 28.27 0 0 0 109.908 55.19 A 23.205 23.205 0 0 0 112.05 60.7 Q 115 66.1 120.2 69.15 A 22.326 22.326 0 0 0 129.972 72.126 A 27.23 27.23 0 0 0 132 72.2 A 28.862 28.862 0 0 0 140.001 71.148 A 21.503 21.503 0 0 0 150.3 64.7 L 151.7 66.1 A 24.118 24.118 0 0 1 144.042 71.632 A 28.017 28.017 0 0 1 143.1 72.05 A 27.756 27.756 0 0 1 133.67 74.157 A 32.476 32.476 0 0 1 132 74.2 Q 124.9 74.2 119.25 70.85 Q 113.6 67.5 110.35 61.65 A 25.884 25.884 0 0 1 107.279 51.725 A 32.155 32.155 0 0 1 107.1 48.3 A 29.536 29.536 0 0 1 108.072 40.59 A 24.906 24.906 0 0 1 110.35 34.95 Q 113.6 29.1 119.25 25.8 A 24.355 24.355 0 0 1 130.248 22.552 A 29.44 29.44 0 0 1 132 22.5 Q 139.2 22.5 144.6 25.8 Q 150 29.1 153 34.95 A 27.204 27.204 0 0 1 155.756 44.157 A 34.282 34.282 0 0 1 156 48.3 L 108.3 48.3 L 108.3 46.3 Z M 196.8 26.2 L 195.8 27.9 A 20.103 20.103 0 0 0 191.845 25.962 A 24.112 24.112 0 0 0 190.1 25.4 A 24.063 24.063 0 0 0 185.642 24.606 A 29.633 29.633 0 0 0 183.1 24.5 A 25.283 25.283 0 0 0 178.457 24.904 Q 175.294 25.495 172.8 26.95 A 7.985 7.985 0 0 0 168.773 32.664 A 11.441 11.441 0 0 0 168.6 34.7 A 10.911 10.911 0 0 0 168.866 37.18 A 7.237 7.237 0 0 0 170.85 40.8 A 14.749 14.749 0 0 0 173.886 43.06 A 19.818 19.818 0 0 0 176.65 44.35 A 84.197 84.197 0 0 0 182.683 46.379 A 94.499 94.499 0 0 0 184.15 46.8 A 57.098 57.098 0 0 1 191.205 49.258 A 52.659 52.659 0 0 1 191.65 49.45 A 16.909 16.909 0 0 1 195.364 51.644 A 14.456 14.456 0 0 1 197.45 53.65 A 9.012 9.012 0 0 1 199.269 57.217 Q 199.7 58.831 199.7 60.8 A 13.918 13.918 0 0 1 199.287 64.273 A 10.4 10.4 0 0 1 197.2 68.4 A 14.331 14.331 0 0 1 191.478 72.523 A 17.156 17.156 0 0 1 190.75 72.8 A 24.791 24.791 0 0 1 183.278 74.183 A 28.367 28.367 0 0 1 182.3 74.2 Q 176.9 74.2 172.1 72.3 A 25.135 25.135 0 0 1 164.581 67.726 A 23.959 23.959 0 0 1 163.8 67 L 165.1 65.5 Q 168.4 68.7 172.8 70.45 A 25.08 25.08 0 0 0 181.036 72.173 A 28.991 28.991 0 0 0 182.3 72.2 A 25.429 25.429 0 0 0 186.807 71.816 A 20.854 20.854 0 0 0 189.8 71.05 A 13.693 13.693 0 0 0 193.498 69.166 A 12.186 12.186 0 0 0 195.4 67.45 A 8.895 8.895 0 0 0 197.589 62.644 A 11.778 11.778 0 0 0 197.7 61.3 A 13.115 13.115 0 0 0 197.717 60.645 Q 197.717 57.108 195.7 55 A 14.609 14.609 0 0 0 192.658 52.597 A 19.606 19.606 0 0 0 189.95 51.25 A 71.888 71.888 0 0 0 184.372 49.244 A 81.359 81.359 0 0 0 182.4 48.65 A 64.437 64.437 0 0 1 175.706 46.331 A 59.052 59.052 0 0 1 174.8 45.95 A 17.873 17.873 0 0 1 171.161 43.874 A 14.922 14.922 0 0 1 168.9 41.8 A 8.88 8.88 0 0 1 166.91 37.829 A 13.069 13.069 0 0 1 166.6 34.9 A 13.429 13.429 0 0 1 166.93 31.842 A 9.394 9.394 0 0 1 168.85 27.9 A 12.932 12.932 0 0 1 173.042 24.623 A 16.381 16.381 0 0 1 174.85 23.85 A 23.092 23.092 0 0 1 181.089 22.566 A 27.357 27.357 0 0 1 183 22.5 A 29.378 29.378 0 0 1 187.64 22.853 A 24.125 24.125 0 0 1 190.55 23.5 A 26.875 26.875 0 0 1 195.174 25.299 A 23.572 23.572 0 0 1 196.8 26.2 Z M 703.1 26.2 L 702.1 27.9 A 20.103 20.103 0 0 0 698.145 25.962 A 24.112 24.112 0 0 0 696.4 25.4 A 24.063 24.063 0 0 0 691.942 24.606 A 29.633 29.633 0 0 0 689.4 24.5 A 25.283 25.283 0 0 0 684.757 24.904 Q 681.594 25.495 679.1 26.95 A 7.985 7.985 0 0 0 675.073 32.664 A 11.441 11.441 0 0 0 674.9 34.7 A 10.911 10.911 0 0 0 675.166 37.18 A 7.237 7.237 0 0 0 677.15 40.8 A 14.749 14.749 0 0 0 680.186 43.06 A 19.818 19.818 0 0 0 682.95 44.35 A 84.197 84.197 0 0 0 688.983 46.379 A 94.499 94.499 0 0 0 690.45 46.8 A 57.098 57.098 0 0 1 697.505 49.258 A 52.659 52.659 0 0 1 697.95 49.45 A 16.909 16.909 0 0 1 701.664 51.644 A 14.456 14.456 0 0 1 703.75 53.65 A 9.012 9.012 0 0 1 705.569 57.217 Q 706 58.831 706 60.8 A 13.918 13.918 0 0 1 705.587 64.273 A 10.4 10.4 0 0 1 703.5 68.4 A 14.331 14.331 0 0 1 697.778 72.523 A 17.156 17.156 0 0 1 697.05 72.8 A 24.791 24.791 0 0 1 689.578 74.183 A 28.367 28.367 0 0 1 688.6 74.2 Q 683.2 74.2 678.4 72.3 A 25.135 25.135 0 0 1 670.881 67.726 A 23.959 23.959 0 0 1 670.1 67 L 671.4 65.5 Q 674.7 68.7 679.1 70.45 A 25.08 25.08 0 0 0 687.336 72.173 A 28.991 28.991 0 0 0 688.6 72.2 A 25.429 25.429 0 0 0 693.107 71.816 A 20.854 20.854 0 0 0 696.1 71.05 A 13.693 13.693 0 0 0 699.798 69.166 A 12.186 12.186 0 0 0 701.7 67.45 A 8.895 8.895 0 0 0 703.889 62.644 A 11.778 11.778 0 0 0 704 61.3 A 13.115 13.115 0 0 0 704.017 60.645 Q 704.017 57.108 702 55 A 14.609 14.609 0 0 0 698.958 52.597 A 19.606 19.606 0 0 0 696.25 51.25 A 71.888 71.888 0 0 0 690.672 49.244 A 81.359 81.359 0 0 0 688.7 48.65 A 64.437 64.437 0 0 1 682.006 46.331 A 59.052 59.052 0 0 1 681.1 45.95 A 17.873 17.873 0 0 1 677.461 43.874 A 14.922 14.922 0 0 1 675.2 41.8 A 8.88 8.88 0 0 1 673.21 37.829 A 13.069 13.069 0 0 1 672.9 34.9 A 13.429 13.429 0 0 1 673.23 31.842 A 9.394 9.394 0 0 1 675.15 27.9 A 12.932 12.932 0 0 1 679.342 24.623 A 16.381 16.381 0 0 1 681.15 23.85 A 23.092 23.092 0 0 1 687.389 22.566 A 27.357 27.357 0 0 1 689.3 22.5 A 29.378 29.378 0 0 1 693.94 22.853 A 24.125 24.125 0 0 1 696.85 23.5 A 26.875 26.875 0 0 1 701.474 25.299 A 23.572 23.572 0 0 1 703.1 26.2 Z M 479.3 29.4 L 478 30.8 Q 474.8 27.9 470.7 26.2 A 22.49 22.49 0 0 0 463.805 24.581 A 26.829 26.829 0 0 0 461.7 24.5 A 25.179 25.179 0 0 0 454.621 25.465 A 21.815 21.815 0 0 0 449.75 27.55 Q 444.5 30.6 441.5 35.95 A 23.416 23.416 0 0 0 438.737 44.493 A 29.721 29.721 0 0 0 438.5 48.3 A 27.793 27.793 0 0 0 439.334 55.238 A 22.964 22.964 0 0 0 441.5 60.7 Q 444.5 66.1 449.75 69.15 A 22.632 22.632 0 0 0 459.238 72.093 A 27.77 27.77 0 0 0 461.7 72.2 A 25.227 25.227 0 0 0 468.869 71.204 A 22.895 22.895 0 0 0 471.5 70.25 Q 476 68.3 479.1 64.7 L 480.4 66.1 Q 477 69.9 472.2 72.05 A 24.914 24.914 0 0 1 463.285 74.157 A 29.264 29.264 0 0 1 461.7 74.2 Q 454.5 74.2 448.85 70.85 Q 443.2 67.5 439.9 61.65 A 25.665 25.665 0 0 1 436.758 51.502 A 31.821 31.821 0 0 1 436.6 48.3 A 29.114 29.114 0 0 1 437.587 40.59 A 24.691 24.691 0 0 1 439.9 34.95 Q 443.2 29.1 448.85 25.8 A 24.308 24.308 0 0 1 459.271 22.597 A 29.789 29.789 0 0 1 461.7 22.5 A 25.806 25.806 0 0 1 469.398 23.629 A 23.938 23.938 0 0 1 471.4 24.35 Q 475.9 26.2 479.3 29.4 Z M 90.6 74.2 L 90.6 42.9 A 25.062 25.062 0 0 0 90.027 37.374 Q 89.172 33.592 87.043 30.822 A 15.068 15.068 0 0 0 85.75 29.35 A 15.976 15.976 0 0 0 78.054 25.14 Q 75.424 24.5 72.3 24.5 A 27.045 27.045 0 0 0 65.478 25.451 A 19.198 19.198 0 0 0 56.2 31.15 Q 50.876 37.071 50.439 47.079 A 41.777 41.777 0 0 0 50.4 48.9 L 48.6 48.9 Q 48.6 41.293 51.01 35.708 A 24.142 24.142 0 0 1 51.4 34.85 Q 54.2 29 59.55 25.8 A 22.82 22.82 0 0 1 67.246 22.972 A 30.475 30.475 0 0 1 72.3 22.5 A 27.941 27.941 0 0 1 77.458 22.952 Q 80.655 23.553 83.25 24.95 Q 87.8 27.4 90.2 31.95 A 20.058 20.058 0 0 1 92.124 37.567 Q 92.6 40.05 92.6 42.9 L 92.6 74.2 L 90.6 74.2 Z M 332.8 74.2 L 332.8 42.9 A 25.062 25.062 0 0 0 332.227 37.374 Q 331.372 33.592 329.243 30.822 A 15.068 15.068 0 0 0 327.95 29.35 A 15.976 15.976 0 0 0 320.254 25.14 Q 317.624 24.5 314.5 24.5 A 27.045 27.045 0 0 0 307.678 25.451 A 19.198 19.198 0 0 0 298.4 31.15 Q 293.076 37.071 292.639 47.079 A 41.777 41.777 0 0 0 292.6 48.9 L 290.8 48.9 Q 290.8 41.293 293.21 35.708 A 24.142 24.142 0 0 1 293.6 34.85 Q 296.4 29 301.75 25.8 A 22.82 22.82 0 0 1 309.446 22.972 A 30.475 30.475 0 0 1 314.5 22.5 A 27.941 27.941 0 0 1 319.658 22.952 Q 322.855 23.553 325.45 24.95 Q 330 27.4 332.4 31.95 A 20.058 20.058 0 0 1 334.324 37.567 Q 334.8 40.05 334.8 42.9 L 334.8 74.2 L 332.8 74.2 Z M 269.3 48 L 249 48 A 36.8 36.8 0 0 0 244.236 48.288 Q 241.815 48.605 239.831 49.27 A 15.258 15.258 0 0 0 236.3 50.95 A 10.189 10.189 0 0 0 233.345 53.813 Q 231.993 55.846 231.824 58.522 A 12.345 12.345 0 0 0 231.8 59.3 A 13.038 13.038 0 0 0 232.624 64.016 A 11.704 11.704 0 0 0 235.85 68.6 A 13.731 13.731 0 0 0 241.807 71.651 Q 244.044 72.2 246.7 72.2 A 31.018 31.018 0 0 0 251.994 71.766 A 24.797 24.797 0 0 0 255.95 70.75 Q 260.1 69.3 263.25 66.15 Q 266.308 63.092 268.282 58.103 A 33.917 33.917 0 0 0 268.4 57.8 L 270.2 58.6 A 28.776 28.776 0 0 1 267.242 64.32 A 20.396 20.396 0 0 1 260.8 70.5 A 26.303 26.303 0 0 1 249.537 74.07 A 32.56 32.56 0 0 1 246.6 74.2 Q 241.6 74.2 237.8 72.25 A 15.459 15.459 0 0 1 233.714 69.266 A 14.013 14.013 0 0 1 231.9 66.95 A 13.83 13.83 0 0 1 229.833 60.36 A 16.918 16.918 0 0 1 229.8 59.3 A 12.148 12.148 0 0 1 230.692 54.563 Q 231.835 51.833 234.444 49.893 A 14.511 14.511 0 0 1 235 49.5 A 18.741 18.741 0 0 1 240.452 47.047 Q 244.188 46 249 46 L 269.3 46 L 269.3 48 Z M 268.4 74.2 L 268.2 39.7 A 20.366 20.366 0 0 0 267.624 35.014 A 13.643 13.643 0 0 0 264.05 28.55 Q 260.75 25.25 254.696 24.639 A 28.851 28.851 0 0 0 251.8 24.5 A 24.205 24.205 0 0 0 245.341 25.34 A 21.536 21.536 0 0 0 242.25 26.45 A 38.931 38.931 0 0 0 236.34 29.769 A 46.487 46.487 0 0 0 233.7 31.7 L 232.5 30.1 A 44.489 44.489 0 0 1 238.069 26.315 A 41.019 41.019 0 0 1 238.45 26.1 Q 241.5 24.4 244.85 23.45 Q 248.2 22.5 251.8 22.5 A 27.273 27.273 0 0 1 257.071 22.977 Q 260.119 23.578 262.484 24.937 A 14.136 14.136 0 0 1 265.4 27.15 A 15.779 15.779 0 0 1 269.758 35.404 A 22.768 22.768 0 0 1 270.2 39.7 L 270.4 74.2 L 268.4 74.2 Z M 382.406 23.406 A 26.743 26.743 0 0 0 374.6 22.3 A 29.763 29.763 0 0 0 372.248 22.392 A 24.221 24.221 0 0 0 361.6 25.7 Q 355.9 29.1 352.6 34.95 A 24.645 24.645 0 0 0 350.218 40.871 A 29.762 29.762 0 0 0 349.3 48.4 A 31.821 31.821 0 0 0 349.458 51.602 A 25.665 25.665 0 0 0 352.6 61.75 Q 355.9 67.6 361.6 71 A 23.328 23.328 0 0 0 366.794 73.294 A 26.743 26.743 0 0 0 374.6 74.4 A 29.763 29.763 0 0 0 376.952 74.308 A 24.221 24.221 0 0 0 387.6 71 Q 393.3 67.6 396.6 61.75 A 24.691 24.691 0 0 0 398.913 56.11 A 29.114 29.114 0 0 0 399.9 48.4 A 32.202 32.202 0 0 0 399.687 44.653 A 25.589 25.589 0 0 0 396.6 34.95 Q 393.3 29.1 387.6 25.7 A 23.328 23.328 0 0 0 382.406 23.406 Z M 525.421 23.663 A 26.905 26.905 0 0 0 517.4 22.5 A 29.789 29.789 0 0 0 514.971 22.597 A 24.308 24.308 0 0 0 504.55 25.8 Q 498.9 29.1 495.6 34.95 A 24.691 24.691 0 0 0 493.287 40.59 A 29.114 29.114 0 0 0 492.3 48.3 A 31.821 31.821 0 0 0 492.458 51.502 A 25.665 25.665 0 0 0 495.6 61.65 Q 498.9 67.5 504.55 70.85 Q 510.2 74.2 517.4 74.2 A 29.732 29.732 0 0 0 519.286 74.141 A 24.478 24.478 0 0 0 530.3 70.85 Q 536 67.5 539.25 61.65 A 24.906 24.906 0 0 0 541.528 56.01 A 29.536 29.536 0 0 0 542.5 48.3 A 32.155 32.155 0 0 0 542.321 44.875 A 25.884 25.884 0 0 0 539.25 34.95 Q 536 29.1 530.3 25.8 A 23.786 23.786 0 0 0 525.421 23.663 Z M 611.021 23.663 A 26.905 26.905 0 0 0 603 22.5 A 29.789 29.789 0 0 0 600.571 22.597 A 24.308 24.308 0 0 0 590.15 25.8 Q 584.5 29.1 581.2 34.95 A 24.691 24.691 0 0 0 578.887 40.59 A 29.114 29.114 0 0 0 577.9 48.3 A 31.821 31.821 0 0 0 578.058 51.502 A 25.665 25.665 0 0 0 581.2 61.65 Q 584.5 67.5 590.15 70.85 Q 595.8 74.2 603 74.2 A 29.732 29.732 0 0 0 604.886 74.141 A 24.478 24.478 0 0 0 615.9 70.85 Q 621.6 67.5 624.85 61.65 A 24.906 24.906 0 0 0 627.128 56.01 A 29.536 29.536 0 0 0 628.1 48.3 A 32.155 32.155 0 0 0 627.921 44.875 A 25.884 25.884 0 0 0 624.85 34.95 Q 621.6 29.1 615.9 25.8 A 23.786 23.786 0 0 0 611.021 23.663 Z M 0 74.2 L 0 0 L 2 0 L 2 74.2 L 0 74.2 Z M 397.9 74.2 L 397.9 0 L 399.9 0 L 399.9 74.2 L 397.9 74.2 Z M 559.2 74.2 L 559.2 0 L 561.2 0 L 561.2 74.2 L 559.2 74.2 Z M 374.6 24.3 A 24.385 24.385 0 0 0 367 25.455 A 21.818 21.818 0 0 0 362.6 27.45 Q 357.3 30.6 354.3 36 A 23.82 23.82 0 0 0 351.512 44.794 A 29.957 29.957 0 0 0 351.3 48.4 A 27.222 27.222 0 0 0 352.249 55.704 A 23.388 23.388 0 0 0 354.3 60.75 Q 357.3 66.2 362.6 69.3 A 22.821 22.821 0 0 0 372.743 72.339 A 27.755 27.755 0 0 0 374.6 72.4 A 25.456 25.456 0 0 0 381.388 71.525 A 21.571 21.571 0 0 0 386.65 69.3 Q 391.9 66.2 394.9 60.75 A 24.323 24.323 0 0 0 397.776 51.143 A 29.855 29.855 0 0 0 397.9 48.4 A 27.793 27.793 0 0 0 397.066 41.462 A 22.964 22.964 0 0 0 394.9 36 Q 391.9 30.6 386.65 27.45 A 22.185 22.185 0 0 0 377.197 24.42 A 27.542 27.542 0 0 0 374.6 24.3 Z M 517.4 24.5 A 25.106 25.106 0 0 0 510.52 25.412 A 21.452 21.452 0 0 0 505.5 27.55 Q 500.3 30.6 497.3 35.95 A 23.416 23.416 0 0 0 494.537 44.493 A 29.721 29.721 0 0 0 494.3 48.3 A 27.793 27.793 0 0 0 495.134 55.238 A 22.964 22.964 0 0 0 497.3 60.7 Q 500.3 66.1 505.5 69.15 A 22.269 22.269 0 0 0 514.74 72.074 A 27.579 27.579 0 0 0 517.4 72.2 A 25.106 25.106 0 0 0 524.28 71.288 A 21.452 21.452 0 0 0 529.3 69.15 Q 534.5 66.1 537.5 60.7 A 23.82 23.82 0 0 0 540.288 51.906 A 29.957 29.957 0 0 0 540.5 48.3 Q 540.5 41.3 537.5 35.95 Q 534.5 30.6 529.3 27.55 A 22.269 22.269 0 0 0 520.06 24.626 A 27.579 27.579 0 0 0 517.4 24.5 Z M 603 24.5 A 25.106 25.106 0 0 0 596.12 25.412 A 21.452 21.452 0 0 0 591.1 27.55 Q 585.9 30.6 582.9 35.95 A 23.416 23.416 0 0 0 580.137 44.493 A 29.721 29.721 0 0 0 579.9 48.3 A 27.793 27.793 0 0 0 580.734 55.238 A 22.964 22.964 0 0 0 582.9 60.7 Q 585.9 66.1 591.1 69.15 A 22.269 22.269 0 0 0 600.34 72.074 A 27.579 27.579 0 0 0 603 72.2 A 25.106 25.106 0 0 0 609.88 71.288 A 21.452 21.452 0 0 0 614.9 69.15 Q 620.1 66.1 623.1 60.7 A 23.82 23.82 0 0 0 625.888 51.906 A 29.957 29.957 0 0 0 626.1 48.3 Q 626.1 41.3 623.1 35.95 Q 620.1 30.6 614.9 27.55 A 22.269 22.269 0 0 0 605.66 24.626 A 27.579 27.579 0 0 0 603 24.5 Z M 24.5 74.2 L 24.5 22.5 L 26.5 22.5 L 26.5 74.2 L 24.5 74.2 Z M 48.5 74.2 L 48.5 22.5 L 50.5 22.5 L 50.5 74.2 L 48.5 74.2 Z M 290.7 74.2 L 290.7 22.5 L 292.7 22.5 L 292.7 74.2 L 290.7 74.2 Z M 644.3 74.2 L 644.3 22.5 L 646.3 22.5 L 646.3 74.2 L 644.3 74.2 Z M 666.1 22.5 L 666.1 24.5 A 22.654 22.654 0 0 0 660.77 25.186 A 17.428 17.428 0 0 0 655.35 27.6 A 18.484 18.484 0 0 0 649.336 34.371 A 22.836 22.836 0 0 0 648.55 36 Q 646.2 41.4 646.2 48.9 L 644.4 48.9 Q 644.4 41.651 646.393 36.238 A 25.673 25.673 0 0 1 646.95 34.85 A 21.515 21.515 0 0 1 650.562 29.107 A 19.016 19.016 0 0 1 654.4 25.8 A 20.003 20.003 0 0 1 662.036 22.865 A 26.204 26.204 0 0 1 666.1 22.5 Z M 26.541 5.199 A 2.659 2.659 0 0 0 25.5 5 A 2.442 2.442 0 0 0 24.466 5.224 A 2.89 2.89 0 0 0 23.7 5.75 Q 22.9 6.5 22.9 7.6 A 2.319 2.319 0 0 0 23.182 8.717 A 2.949 2.949 0 0 0 23.7 9.4 A 3.272 3.272 0 0 0 24.007 9.672 A 2.381 2.381 0 0 0 25.5 10.2 Q 26.6 10.2 27.35 9.4 Q 28.1 8.6 28.1 7.6 A 3.201 3.201 0 0 0 28.1 7.566 A 2.508 2.508 0 0 0 27.35 5.75 A 2.52 2.52 0 0 0 26.541 5.199 Z" vector-effect="non-scaling-stroke"/></g></svg>