<svg width="782.227" height="80.177" viewBox="0 0 782.227 80.177" xmlns="http://www.w3.org/2000/svg"><g id="svgGroup" stroke-linecap="round" fill-rule="nonzero" font-size="9pt" stroke="#00000000" stroke-width="0.25mm" fill="#005f5f" style="stroke:#00000000;stroke-width:0.25mm;fill:#005f5f"><path d="M 109.668 77.735 L 109.668 79.689 L 97.754 79.689 L 97.754 49.708 A 68.157 68.157 0 0 0 97.589 44.892 A 59.762 59.762 0 0 0 97.461 43.36 A 18.867 18.867 0 0 0 96.94 40.379 A 14.685 14.685 0 0 0 96.094 37.989 Q 95.02 35.646 93.164 34.327 A 6.407 6.407 0 0 0 91.265 33.427 Q 90.408 33.172 89.379 33.073 A 14.45 14.45 0 0 0 87.988 33.009 Q 86.938 33.009 85.28 33.289 A 32.634 32.634 0 0 0 85.205 33.302 Q 83.496 33.595 81.689 34.181 A 20.012 20.012 0 0 0 78.271 35.646 Q 76.66 36.525 75.879 37.696 L 75.879 38.282 L 75.879 38.478 L 75.879 60.157 L 75.879 60.353 L 75.879 79.689 L 64.063 79.689 L 64.063 24.61 L 74.609 24.61 L 75.879 30.177 A 15.748 15.748 0 0 1 77.02 29.232 Q 77.838 28.614 78.857 27.98 A 25.68 25.68 0 0 1 81.889 26.374 A 29.388 29.388 0 0 1 82.813 25.978 Q 84.961 25.099 87.207 24.562 A 19.241 19.241 0 0 1 90.792 24.043 A 17.425 17.425 0 0 1 91.602 24.025 Q 95.996 24.025 99.023 25.88 A 31.614 31.614 0 0 1 102.429 28.307 A 40.947 40.947 0 0 1 105.078 30.665 Q 106.738 32.325 107.666 34.523 A 21.962 21.962 0 0 1 109.033 39.112 A 34.317 34.317 0 0 1 109.57 43.946 A 119.752 119.752 0 0 1 109.668 48.732 L 109.668 77.735 Z M 374.121 77.735 L 374.121 79.689 L 362.207 79.689 L 362.207 49.708 A 68.157 68.157 0 0 0 362.042 44.892 A 59.762 59.762 0 0 0 361.914 43.36 A 18.867 18.867 0 0 0 361.393 40.379 A 14.685 14.685 0 0 0 360.547 37.989 Q 359.473 35.646 357.617 34.327 A 6.407 6.407 0 0 0 355.718 33.427 Q 354.861 33.172 353.832 33.073 A 14.45 14.45 0 0 0 352.441 33.009 Q 351.391 33.009 349.734 33.289 A 32.634 32.634 0 0 0 349.658 33.302 Q 347.949 33.595 346.143 34.181 A 20.012 20.012 0 0 0 342.725 35.646 Q 341.113 36.525 340.332 37.696 L 340.332 38.282 L 340.332 38.478 L 340.332 60.157 L 340.332 60.353 L 340.332 79.689 L 328.516 79.689 L 328.516 24.61 L 339.063 24.61 L 340.332 30.177 A 15.748 15.748 0 0 1 341.473 29.232 Q 342.291 28.614 343.311 27.98 A 25.68 25.68 0 0 1 346.342 26.374 A 29.388 29.388 0 0 1 347.266 25.978 Q 349.414 25.099 351.66 24.562 A 19.241 19.241 0 0 1 355.246 24.043 A 17.425 17.425 0 0 1 356.055 24.025 Q 360.449 24.025 363.477 25.88 A 31.614 31.614 0 0 1 366.882 28.307 A 40.947 40.947 0 0 1 369.531 30.665 Q 371.191 32.325 372.119 34.523 A 21.962 21.962 0 0 1 373.486 39.112 A 34.317 34.317 0 0 1 374.023 43.946 A 119.752 119.752 0 0 1 374.121 48.732 L 374.121 77.735 Z M 424.414 30.177 Q 423.224 28.511 421.29 27.243 A 17.24 17.24 0 0 0 418.506 25.782 A 20.452 20.452 0 0 0 415.289 24.739 A 23.947 23.947 0 0 0 409.766 24.122 A 22.07 22.07 0 0 0 407.248 24.267 A 25.184 25.184 0 0 0 401.807 25.538 A 18.89 18.89 0 0 0 399.525 26.508 A 20.684 20.684 0 0 0 394.434 30.177 Q 391.113 33.4 389.014 38.575 A 23.808 23.808 0 0 0 388.208 40.912 Q 387.532 43.25 387.209 45.999 A 46.096 46.096 0 0 0 386.914 51.368 A 44.943 44.943 0 0 0 388.672 63.771 Q 390.43 69.923 394.141 74.122 A 19.327 19.327 0 0 0 395.317 75.345 A 15.792 15.792 0 0 0 400.83 78.81 A 22.274 22.274 0 0 0 408.496 80.177 Q 411.426 80.177 414.16 79.591 Q 416.895 79.005 419.092 77.98 A 20.803 20.803 0 0 0 419.374 77.845 Q 421.381 76.872 422.705 75.685 Q 423.507 74.966 423.949 74.247 A 3.692 3.692 0 0 0 424.414 73.146 Q 424.609 74.61 424.756 76.319 A 107.165 107.165 0 0 0 425.098 79.689 L 436.328 79.689 L 436.328 3.81 L 424.414 3.81 L 424.414 30.177 Z M 399.414 52.247 A 27.554 27.554 0 0 0 399.835 57.143 A 23.563 23.563 0 0 0 400.391 59.523 A 24.096 24.096 0 0 0 401.706 63.05 A 19.376 19.376 0 0 0 403.027 65.431 A 13.348 13.348 0 0 0 405.656 68.414 A 12.103 12.103 0 0 0 407.08 69.435 Q 409.473 70.9 412.305 70.9 A 10.345 10.345 0 0 0 415.923 70.278 A 9.58 9.58 0 0 0 417.725 69.386 Q 420.117 67.872 421.777 65.333 Q 423.438 62.794 424.316 59.376 A 28.216 28.216 0 0 0 425.14 53.974 A 33.166 33.166 0 0 0 425.195 52.052 A 29.196 29.196 0 0 0 424.757 46.912 A 25.352 25.352 0 0 0 424.268 44.728 A 22.07 22.07 0 0 0 422.998 41.206 A 17.722 17.722 0 0 0 421.631 38.771 A 14.378 14.378 0 0 0 418.855 35.679 A 13.044 13.044 0 0 0 417.529 34.718 A 9.836 9.836 0 0 0 412.497 33.211 A 11.871 11.871 0 0 0 412.109 33.204 A 10.308 10.308 0 0 0 408.837 33.71 A 9.211 9.211 0 0 0 406.738 34.718 Q 404.395 36.232 402.783 38.868 Q 401.172 41.505 400.293 44.923 A 28.216 28.216 0 0 0 399.469 50.325 A 33.166 33.166 0 0 0 399.414 52.247 Z M 189.746 75.294 L 194.727 67.384 A 22.881 22.881 0 0 0 196.863 68.702 Q 198.022 69.337 199.365 69.923 Q 202.051 71.095 206.152 71.095 A 28.219 28.219 0 0 0 209.28 70.933 Q 210.85 70.757 212.151 70.392 A 11.379 11.379 0 0 0 214.551 69.435 Q 217.542 67.794 217.578 64.628 A 6.807 6.807 0 0 0 217.578 64.552 A 5.04 5.04 0 0 0 217.245 62.686 A 4.568 4.568 0 0 0 215.82 60.792 A 13.573 13.573 0 0 0 213.865 59.493 Q 212.881 58.949 211.714 58.482 A 23.185 23.185 0 0 0 211.377 58.351 A 80.576 80.576 0 0 0 207.5 56.987 A 95.134 95.134 0 0 0 205.615 56.398 Q 202.539 55.47 199.902 54.103 A 38.491 38.491 0 0 1 196.65 52.188 Q 193.837 50.328 192.139 48.341 A 10.411 10.411 0 0 1 189.946 43.926 Q 189.575 42.382 189.552 40.575 A 18.899 18.899 0 0 1 189.551 40.333 A 16.725 16.725 0 0 1 189.978 36.476 A 13.424 13.424 0 0 1 191.26 33.107 Q 192.969 29.982 195.703 27.882 A 19.378 19.378 0 0 1 201.463 24.864 A 22.076 22.076 0 0 1 201.953 24.708 A 24.269 24.269 0 0 1 209.082 23.634 Q 213.965 23.634 218.066 24.659 A 26.258 26.258 0 0 1 225.26 27.681 A 29.841 29.841 0 0 1 225.977 28.126 L 222.168 36.232 Q 219.238 34.571 215.82 33.937 Q 212.402 33.302 209.082 33.302 A 13.108 13.108 0 0 0 206.789 33.49 Q 205.519 33.716 204.504 34.213 A 6.686 6.686 0 0 0 203.369 34.913 Q 201.27 36.525 201.27 39.943 A 5.861 5.861 0 0 0 201.56 41.831 A 4.821 4.821 0 0 0 203.174 44.093 A 14.738 14.738 0 0 0 205.055 45.352 Q 206.403 46.119 208.105 46.778 A 167.436 167.436 0 0 0 212.453 48.39 A 196.383 196.383 0 0 0 214.551 49.122 Q 217.969 50.294 220.947 52.101 Q 223.926 53.907 225.879 56.642 A 10.026 10.026 0 0 1 227.445 60.156 Q 227.783 61.556 227.826 63.192 A 18.334 18.334 0 0 1 227.832 63.673 A 17.94 17.94 0 0 1 227.467 67.374 A 13.693 13.693 0 0 1 226.172 70.997 A 14.976 14.976 0 0 1 221.68 76.173 A 18.939 18.939 0 0 1 216.553 78.778 A 22.355 22.355 0 0 1 215.137 79.2 A 30.055 30.055 0 0 1 209.04 80.13 A 34.792 34.792 0 0 1 207.227 80.177 A 78.25 78.25 0 0 1 204.785 80.14 A 61.129 61.129 0 0 1 202.539 80.03 A 25.623 25.623 0 0 1 198.34 79.396 A 20.344 20.344 0 0 1 194.815 78.196 A 22.96 22.96 0 0 1 194.238 77.931 A 27.586 27.586 0 0 1 192.369 76.945 Q 191.432 76.407 190.425 75.747 A 47.937 47.937 0 0 1 189.746 75.294 Z M 744.141 75.294 L 749.121 67.384 A 22.881 22.881 0 0 0 751.257 68.702 Q 752.417 69.337 753.76 69.923 Q 756.445 71.095 760.547 71.095 A 28.219 28.219 0 0 0 763.675 70.933 Q 765.245 70.757 766.546 70.392 A 11.379 11.379 0 0 0 768.945 69.435 Q 771.937 67.794 771.972 64.628 A 6.807 6.807 0 0 0 771.973 64.552 A 5.04 5.04 0 0 0 771.639 62.686 A 4.568 4.568 0 0 0 770.215 60.792 A 13.573 13.573 0 0 0 768.26 59.493 Q 767.276 58.949 766.109 58.482 A 23.185 23.185 0 0 0 765.771 58.351 A 80.576 80.576 0 0 0 761.894 56.987 A 95.134 95.134 0 0 0 760.01 56.398 Q 756.934 55.47 754.297 54.103 A 38.491 38.491 0 0 1 751.044 52.188 Q 748.232 50.328 746.533 48.341 A 10.411 10.411 0 0 1 744.34 43.926 Q 743.97 42.382 743.947 40.575 A 18.899 18.899 0 0 1 743.945 40.333 A 16.725 16.725 0 0 1 744.373 36.476 A 13.424 13.424 0 0 1 745.654 33.107 Q 747.363 29.982 750.098 27.882 A 19.378 19.378 0 0 1 755.857 24.864 A 22.076 22.076 0 0 1 756.348 24.708 A 24.269 24.269 0 0 1 763.477 23.634 Q 768.359 23.634 772.461 24.659 A 26.258 26.258 0 0 1 779.654 27.681 A 29.841 29.841 0 0 1 780.371 28.126 L 776.563 36.232 Q 773.633 34.571 770.215 33.937 Q 766.797 33.302 763.477 33.302 A 13.108 13.108 0 0 0 761.183 33.49 Q 759.914 33.716 758.899 34.213 A 6.686 6.686 0 0 0 757.764 34.913 Q 755.664 36.525 755.664 39.943 A 5.861 5.861 0 0 0 755.955 41.831 A 4.821 4.821 0 0 0 757.568 44.093 A 14.738 14.738 0 0 0 759.45 45.352 Q 760.797 46.119 762.5 46.778 A 167.436 167.436 0 0 0 766.847 48.39 A 196.383 196.383 0 0 0 768.945 49.122 Q 772.363 50.294 775.342 52.101 Q 778.32 53.907 780.273 56.642 A 10.026 10.026 0 0 1 781.839 60.156 Q 782.177 61.556 782.22 63.192 A 18.334 18.334 0 0 1 782.227 63.673 A 17.94 17.94 0 0 1 781.862 67.374 A 13.693 13.693 0 0 1 780.566 70.997 A 14.976 14.976 0 0 1 776.074 76.173 A 18.939 18.939 0 0 1 770.947 78.778 A 22.355 22.355 0 0 1 769.531 79.2 A 30.055 30.055 0 0 1 763.435 80.13 A 34.792 34.792 0 0 1 761.621 80.177 A 78.25 78.25 0 0 1 759.18 80.14 A 61.129 61.129 0 0 1 756.934 80.03 A 25.623 25.623 0 0 1 752.734 79.396 A 20.344 20.344 0 0 1 749.21 78.196 A 22.96 22.96 0 0 1 748.633 77.931 A 27.586 27.586 0 0 1 746.764 76.945 Q 745.826 76.407 744.82 75.747 A 47.937 47.937 0 0 1 744.141 75.294 Z M 174.316 56.153 Q 175.195 49.903 173.779 44.093 Q 172.363 38.282 169.092 33.839 Q 165.82 29.396 160.742 26.71 A 22.291 22.291 0 0 0 155.273 24.696 A 27.926 27.926 0 0 0 149.023 24.025 A 21.287 21.287 0 0 0 139.551 26.222 A 24.084 24.084 0 0 0 131.787 32.228 A 27.636 27.636 0 0 0 129.871 34.737 A 31.221 31.221 0 0 0 126.563 41.163 Q 124.609 46.29 124.609 52.052 Q 124.609 57.911 126.563 62.989 A 33.398 33.398 0 0 0 127.072 64.239 A 29.051 29.051 0 0 0 131.836 71.876 Q 135.156 75.685 139.844 77.882 A 23.404 23.404 0 0 0 149.902 80.079 A 38.975 38.975 0 0 0 152.282 80.009 Q 154.636 79.865 156.652 79.426 A 19.157 19.157 0 0 0 160.84 78.028 A 20.307 20.307 0 0 0 163.42 76.556 A 22.324 22.324 0 0 0 168.359 71.974 L 164.063 65.431 A 12.777 12.777 0 0 1 163.791 65.694 A 13.711 13.711 0 0 1 160.889 67.775 A 27.642 27.642 0 0 1 160.437 68.013 A 24.769 24.769 0 0 1 157.275 69.386 A 21.679 21.679 0 0 1 155.732 69.867 A 16.999 16.999 0 0 1 153.857 70.265 A 27.778 27.778 0 0 1 152.88 70.396 Q 152.419 70.449 152.013 70.477 A 12.245 12.245 0 0 1 151.172 70.509 A 18.831 18.831 0 0 1 150.324 70.49 A 16.26 16.26 0 0 1 145.166 69.435 A 16.424 16.424 0 0 1 144.482 69.153 A 14.12 14.12 0 0 1 140.381 66.456 A 14.088 14.088 0 0 1 137.207 61.915 A 13.165 13.165 0 0 1 136.589 60.22 A 14.585 14.585 0 0 1 136.035 56.153 L 174.316 56.153 Z M 136.426 47.56 L 163.379 47.56 A 14.308 14.308 0 0 0 162.402 42.384 A 16.2 16.2 0 0 0 159.717 37.794 Q 158.008 35.743 155.566 34.523 Q 153.125 33.302 150.293 33.204 A 13.643 13.643 0 0 0 146.361 33.758 A 12.338 12.338 0 0 0 144.727 34.376 Q 142.188 35.548 140.332 37.501 Q 138.477 39.454 137.451 42.14 A 15.09 15.09 0 0 0 136.426 47.56 Z M 309.863 49.903 L 309.863 62.599 L 309.863 63.38 A 17.387 17.387 0 0 0 309.869 63.816 Q 309.882 64.314 309.921 65.006 A 76.658 76.658 0 0 0 309.961 65.675 Q 310.059 67.189 310.352 68.751 A 11.409 11.409 0 0 0 310.867 70.633 A 9.663 9.663 0 0 0 311.279 71.583 A 4.141 4.141 0 0 0 311.792 72.382 A 2.777 2.777 0 0 0 312.988 73.243 L 309.863 79.786 A 6.243 6.243 0 0 1 308.346 79.59 A 8.378 8.378 0 0 1 307.178 79.2 A 10.551 10.551 0 0 1 305.111 78.049 A 12.497 12.497 0 0 1 304.443 77.54 Q 303.125 76.466 302.197 75.148 Q 301.27 73.829 300.781 72.267 A 6.974 6.974 0 0 1 299.688 74.057 Q 299.136 74.723 298.389 75.343 A 21.339 21.339 0 0 1 295.45 77.377 A 24.532 24.532 0 0 1 294.531 77.882 Q 292.383 79.005 289.893 79.591 A 23.02 23.02 0 0 1 287.343 80.048 A 17.693 17.693 0 0 1 285.254 80.177 Q 281.934 80.177 278.857 79.298 A 14.639 14.639 0 0 1 273.438 76.466 A 12.246 12.246 0 0 1 270.601 73.008 A 15.482 15.482 0 0 1 269.775 71.29 Q 268.457 68.068 268.457 63.38 A 17.83 17.83 0 0 1 268.848 59.56 A 13.543 13.543 0 0 1 270.361 55.616 Q 272.266 52.345 275.244 50.245 A 20.838 20.838 0 0 1 280.861 47.467 A 24.093 24.093 0 0 1 282.031 47.12 Q 285.84 46.095 289.746 46.095 L 298.047 46.095 A 76.916 76.916 0 0 0 297.999 43.295 Q 297.894 40.425 297.559 38.478 A 14.274 14.274 0 0 0 297.208 36.93 Q 296.739 35.312 295.954 34.392 A 4.162 4.162 0 0 0 295.898 34.327 Q 294.727 33.009 293.018 32.667 Q 291.567 32.377 289.66 32.333 A 30.208 30.208 0 0 0 288.965 32.325 Q 286.816 32.325 284.912 32.862 A 26.046 26.046 0 0 0 282.459 33.683 A 22.053 22.053 0 0 0 281.396 34.132 A 18.496 18.496 0 0 0 279.729 34.99 A 14.48 14.48 0 0 0 278.564 35.743 A 69.277 69.277 0 0 0 277.994 36.158 Q 277.446 36.561 277.067 36.86 A 15.073 15.073 0 0 0 276.758 37.11 L 272.363 30.372 Q 273.047 29.621 274.208 28.845 A 19.106 19.106 0 0 1 275.293 28.175 A 23.339 23.339 0 0 1 277.673 26.99 A 30.432 30.432 0 0 1 279.785 26.173 A 34.767 34.767 0 0 1 283.395 25.146 A 41.627 41.627 0 0 1 285.303 24.757 A 34.627 34.627 0 0 1 291.002 24.223 A 38.335 38.335 0 0 1 291.504 24.22 A 27.657 27.657 0 0 1 297.217 24.806 Q 300 25.392 302.295 26.759 A 13.609 13.609 0 0 1 305.973 29.999 A 15.69 15.69 0 0 1 306.299 30.421 A 12.342 12.342 0 0 1 307.897 33.358 A 16.837 16.837 0 0 1 308.691 36.134 Q 309.375 39.552 309.619 43.019 Q 309.863 46.485 309.863 49.903 Z M 298.145 66.505 L 298.145 53.028 L 291.895 53.028 Q 289.941 53.028 287.793 53.419 Q 285.645 53.81 283.789 54.884 A 8.492 8.492 0 0 0 281.11 57.357 A 10.262 10.262 0 0 0 280.713 57.96 A 7.819 7.819 0 0 0 279.807 60.203 Q 279.492 61.5 279.492 63.087 Q 279.492 65.963 280.254 67.89 A 6.309 6.309 0 0 0 281.689 70.118 A 7.037 7.037 0 0 0 284.583 71.793 Q 285.683 72.133 287.011 72.229 A 14.941 14.941 0 0 0 288.086 72.267 A 10.96 10.96 0 0 0 293.512 70.812 A 12.979 12.979 0 0 0 293.701 70.704 A 13.357 13.357 0 0 0 298.145 66.505 Z M 516.211 65.626 L 520.605 71.974 Q 517.285 76.173 513.379 78.175 A 16.607 16.607 0 0 1 509.55 79.543 Q 506.824 80.177 503.418 80.177 A 26.112 26.112 0 0 1 496.955 79.402 A 22.376 22.376 0 0 1 492.969 77.98 A 24.321 24.321 0 0 1 484.961 72.023 A 25.21 25.21 0 0 1 480.209 63.97 A 29.018 29.018 0 0 1 479.932 63.185 A 33.022 33.022 0 0 1 478.329 55.073 A 39.363 39.363 0 0 1 478.223 52.15 A 32.67 32.67 0 0 1 479.223 43.965 A 29.404 29.404 0 0 1 480.078 41.212 A 28.187 28.187 0 0 1 483.685 34.336 A 25.678 25.678 0 0 1 485.254 32.374 Q 488.574 28.614 493.262 26.466 A 23.731 23.731 0 0 1 500.897 24.452 A 28.905 28.905 0 0 1 503.711 24.318 A 30.771 30.771 0 0 1 508.34 24.648 Q 510.917 25.04 513.084 25.899 A 18.071 18.071 0 0 1 514.063 26.319 A 20.016 20.016 0 0 1 519.847 30.445 A 24.87 24.87 0 0 1 521.68 32.521 L 516.406 38.868 Q 514.746 36.915 511.816 35.304 Q 508.887 33.693 503.809 33.693 Q 500.879 33.693 498.438 35.06 A 12.397 12.397 0 0 0 494.504 38.567 A 14.401 14.401 0 0 0 494.287 38.868 Q 492.578 41.31 491.65 44.63 A 25.208 25.208 0 0 0 490.818 49.414 A 30.658 30.658 0 0 0 490.723 51.857 A 32.489 32.489 0 0 0 491.047 56.53 A 27.256 27.256 0 0 0 491.553 59.132 Q 492.383 62.501 494.043 65.04 A 14.25 14.25 0 0 0 496.238 67.677 A 12.183 12.183 0 0 0 497.998 69.044 A 9.347 9.347 0 0 0 502.188 70.455 A 11.709 11.709 0 0 0 503.32 70.509 A 22.603 22.603 0 0 0 506.537 70.293 Q 508.878 69.956 510.693 69.093 A 27.624 27.624 0 0 0 516.211 65.626 Z M 11.914 3.81 L 11.914 62.892 A 20.446 20.446 0 0 0 12 64.829 Q 12.091 65.787 12.28 66.588 A 8.059 8.059 0 0 0 12.793 68.116 A 7.139 7.139 0 0 0 13.748 69.664 A 5.638 5.638 0 0 0 15.234 70.948 Q 16.797 71.876 18.799 72.169 A 27.594 27.594 0 0 0 21.366 72.417 A 34.417 34.417 0 0 0 23.145 72.462 L 23.145 79.689 A 32.24 32.24 0 0 1 20.848 79.956 A 35.566 35.566 0 0 1 20.508 79.982 A 33.618 33.618 0 0 1 19.647 80.048 Q 19.266 80.073 18.846 80.093 A 61.19 61.19 0 0 1 17.969 80.128 A 87.934 87.934 0 0 1 15.039 80.177 Q 13.574 80.177 12.109 80.079 Q 10.645 79.982 9.473 79.786 A 10.398 10.398 0 0 1 6.932 78.931 A 7.974 7.974 0 0 1 4.297 76.857 Q 2.441 74.61 1.465 71.827 A 24.006 24.006 0 0 1 0.499 68.237 A 20.491 20.491 0 0 1 0.244 66.407 A 87.24 87.24 0 0 1 0.137 65.162 Q 0.032 63.816 0.008 62.857 A 21.537 21.537 0 0 1 0 62.306 L 0 61.134 L 0 3.81 L 11.914 3.81 Z M 613.281 3.81 L 613.281 62.892 A 20.446 20.446 0 0 0 613.367 64.829 Q 613.459 65.787 613.647 66.588 A 8.059 8.059 0 0 0 614.16 68.116 A 7.139 7.139 0 0 0 615.116 69.664 A 5.638 5.638 0 0 0 616.602 70.948 Q 618.164 71.876 620.166 72.169 A 27.594 27.594 0 0 0 622.733 72.417 A 34.417 34.417 0 0 0 624.512 72.462 L 624.512 79.689 A 32.24 32.24 0 0 1 622.215 79.956 A 35.566 35.566 0 0 1 621.875 79.982 A 33.618 33.618 0 0 1 621.014 80.048 Q 620.633 80.073 620.213 80.093 A 61.19 61.19 0 0 1 619.336 80.128 A 87.934 87.934 0 0 1 616.406 80.177 Q 614.941 80.177 613.477 80.079 Q 612.012 79.982 610.84 79.786 A 10.398 10.398 0 0 1 608.299 78.931 A 7.974 7.974 0 0 1 605.664 76.857 Q 603.809 74.61 602.832 71.827 A 24.006 24.006 0 0 1 601.866 68.237 A 20.491 20.491 0 0 1 601.611 66.407 A 87.24 87.24 0 0 1 601.505 65.162 Q 601.399 63.816 601.375 62.857 A 21.537 21.537 0 0 1 601.367 62.306 L 601.367 61.134 L 601.367 3.81 L 613.281 3.81 Z M 732.617 24.22 L 732.617 36.525 A 20.35 20.35 0 0 0 730.101 35.987 Q 728.818 35.791 727.35 35.703 A 39.522 39.522 0 0 0 725.977 35.646 A 29.887 29.887 0 0 0 718.994 36.476 A 14.861 14.861 0 0 0 716.411 37.335 Q 714.694 38.099 713.477 39.259 L 713.477 60.157 L 713.477 60.353 L 713.477 79.689 L 701.66 79.689 L 701.66 24.61 L 712.207 24.61 L 713.477 30.275 A 25.866 25.866 0 0 1 716.553 27.638 A 13.176 13.176 0 0 1 718.96 26.261 A 16.186 16.186 0 0 1 720.313 25.734 A 21.441 21.441 0 0 1 722.342 25.158 Q 723.743 24.83 725.391 24.61 A 39.062 39.062 0 0 1 727.78 24.372 Q 728.856 24.296 730.065 24.258 A 81.099 81.099 0 0 1 732.617 24.22 Z M 567.772 25.092 A 21.58 21.58 0 0 1 571.68 26.515 Q 576.27 28.712 579.492 32.521 A 27.139 27.139 0 0 1 584.01 40.158 A 31.318 31.318 0 0 1 584.473 41.407 A 32.375 32.375 0 0 1 586.169 50.175 A 37.668 37.668 0 0 1 586.23 52.345 A 32.796 32.796 0 0 1 585.098 61.053 A 30.005 30.005 0 0 1 584.375 63.331 A 27.683 27.683 0 0 1 580.833 70.124 A 25.133 25.133 0 0 1 579.15 72.218 A 23.821 23.821 0 0 1 571.143 78.077 A 23.745 23.745 0 0 1 563.439 80.062 A 28.752 28.752 0 0 1 560.84 80.177 A 26.805 26.805 0 0 1 554.199 79.379 A 23.165 23.165 0 0 1 550.342 78.028 A 22.848 22.848 0 0 1 542.334 72.071 A 26.779 26.779 0 0 1 537.648 64.126 A 30.732 30.732 0 0 1 537.305 63.185 A 32.217 32.217 0 0 1 535.657 55.073 A 38.275 38.275 0 0 1 535.547 52.15 A 32.933 32.933 0 0 1 536.618 43.653 A 29.838 29.838 0 0 1 537.451 41.017 A 27.942 27.942 0 0 1 540.404 35.138 A 24.137 24.137 0 0 1 542.725 32.179 A 24.07 24.07 0 0 1 550.879 26.417 A 25.153 25.153 0 0 1 559.125 24.404 A 30.09 30.09 0 0 1 561.426 24.318 A 25.182 25.182 0 0 1 567.772 25.092 Z M 560.645 70.9 A 10.424 10.424 0 0 0 564.875 70.044 A 10.105 10.105 0 0 0 565.967 69.484 Q 568.359 68.068 570.068 65.577 A 19.034 19.034 0 0 0 571.857 62.293 A 24.622 24.622 0 0 0 572.803 59.669 Q 573.828 56.251 573.828 52.345 A 29.196 29.196 0 0 0 573.39 47.205 A 25.352 25.352 0 0 0 572.9 45.021 A 24.812 24.812 0 0 0 571.651 41.461 A 19.807 19.807 0 0 0 570.361 39.015 A 13.959 13.959 0 0 0 567.8 35.941 A 12.623 12.623 0 0 0 566.406 34.864 Q 564.063 33.302 561.133 33.302 A 10.244 10.244 0 0 0 555.762 34.767 Q 553.32 36.232 551.611 38.722 A 17.875 17.875 0 0 0 549.742 42.273 A 22.496 22.496 0 0 0 548.975 44.581 A 26.05 26.05 0 0 0 548.12 49.702 A 31.084 31.084 0 0 0 548.047 51.857 A 32.838 32.838 0 0 0 548.476 57.245 A 28.786 28.786 0 0 0 548.877 59.23 A 21.359 21.359 0 0 0 549.983 62.628 A 16.724 16.724 0 0 0 551.367 65.235 A 15.113 15.113 0 0 0 553.885 68.207 A 13.407 13.407 0 0 0 555.322 69.337 A 9.042 9.042 0 0 0 559.896 70.875 A 11.226 11.226 0 0 0 560.645 70.9 Z M 667.87 25.092 A 21.58 21.58 0 0 1 671.777 26.515 Q 676.367 28.712 679.59 32.521 A 27.139 27.139 0 0 1 684.108 40.158 A 31.318 31.318 0 0 1 684.57 41.407 A 32.375 32.375 0 0 1 686.266 50.175 A 37.668 37.668 0 0 1 686.328 52.345 A 32.796 32.796 0 0 1 685.196 61.053 A 30.005 30.005 0 0 1 684.473 63.331 A 27.683 27.683 0 0 1 680.931 70.124 A 25.133 25.133 0 0 1 679.248 72.218 A 23.821 23.821 0 0 1 671.24 78.077 A 23.745 23.745 0 0 1 663.536 80.062 A 28.752 28.752 0 0 1 660.938 80.177 A 26.805 26.805 0 0 1 654.296 79.379 A 23.165 23.165 0 0 1 650.439 78.028 A 22.848 22.848 0 0 1 642.432 72.071 A 26.779 26.779 0 0 1 637.745 64.126 A 30.732 30.732 0 0 1 637.402 63.185 A 32.217 32.217 0 0 1 635.754 55.073 A 38.275 38.275 0 0 1 635.645 52.15 A 32.933 32.933 0 0 1 636.716 43.653 A 29.838 29.838 0 0 1 637.549 41.017 A 27.942 27.942 0 0 1 640.501 35.138 A 24.137 24.137 0 0 1 642.822 32.179 A 24.07 24.07 0 0 1 650.977 26.417 A 25.153 25.153 0 0 1 659.223 24.404 A 30.09 30.09 0 0 1 661.523 24.318 A 25.182 25.182 0 0 1 667.87 25.092 Z M 660.742 70.9 A 10.424 10.424 0 0 0 664.972 70.044 A 10.105 10.105 0 0 0 666.064 69.484 Q 668.457 68.068 670.166 65.577 A 19.034 19.034 0 0 0 671.954 62.293 A 24.622 24.622 0 0 0 672.9 59.669 Q 673.926 56.251 673.926 52.345 A 29.196 29.196 0 0 0 673.487 47.205 A 25.352 25.352 0 0 0 672.998 45.021 A 24.812 24.812 0 0 0 671.748 41.461 A 19.807 19.807 0 0 0 670.459 39.015 A 13.959 13.959 0 0 0 667.897 35.941 A 12.623 12.623 0 0 0 666.504 34.864 Q 664.16 33.302 661.23 33.302 A 10.244 10.244 0 0 0 655.859 34.767 Q 653.418 36.232 651.709 38.722 A 17.875 17.875 0 0 0 649.84 42.273 A 22.496 22.496 0 0 0 649.072 44.581 A 26.05 26.05 0 0 0 648.218 49.702 A 31.084 31.084 0 0 0 648.145 51.857 A 32.838 32.838 0 0 0 648.573 57.245 A 28.786 28.786 0 0 0 648.975 59.23 A 21.359 21.359 0 0 0 650.081 62.628 A 16.724 16.724 0 0 0 651.465 65.235 A 15.113 15.113 0 0 0 653.982 68.207 A 13.407 13.407 0 0 0 655.42 69.337 A 9.042 9.042 0 0 0 659.994 70.875 A 11.226 11.226 0 0 0 660.742 70.9 Z M 47.461 24.61 L 47.461 79.689 L 35.547 79.689 L 35.547 24.61 L 47.461 24.61 Z M 47.922 9.959 A 6.768 6.768 0 0 1 46.484 11.964 Q 44.434 13.966 41.504 13.966 A 6.882 6.882 0 0 1 38.577 13.353 A 6.768 6.768 0 0 1 36.572 11.915 Q 34.57 9.864 34.57 7.032 A 6.774 6.774 0 0 1 36.558 2.116 A 8.072 8.072 0 0 1 36.621 2.052 A 6.918 6.918 0 0 1 39.156 0.401 A 6.812 6.812 0 0 1 41.504 0.001 A 6.774 6.774 0 0 1 46.42 1.988 A 8.072 8.072 0 0 1 46.484 2.052 A 6.771 6.771 0 0 1 48.535 6.941 A 8.31 8.31 0 0 1 48.535 7.032 A 6.882 6.882 0 0 1 47.922 9.959 Z" vector-effect="non-scaling-stroke"/></g></svg>